<svg xmlns="http://www.w3.org/2000/svg" viewBox="0 0 320 200">
<defs>
<linearGradient id="g1" x1="0" y1="0" x2="1" y2="1">
<stop offset="0%" stop-color="#B8D4B0"/>
<stop offset="100%" stop-color="#A8C4A0"/>
</linearGradient>
<linearGradient id="g2" x1="0" y1="0" x2="1" y2="1">
<stop offset="0%" stop-color="#C4D8B0"/>
<stop offset="100%" stop-color="#B4C8A0"/>
</linearGradient>
<linearGradient id="g3" x1="0" y1="0" x2="1" y2="1">
<stop offset="0%" stop-color="#D0D0A0"/>
<stop offset="100%" stop-color="#C0C090"/>
</linearGradient>
<linearGradient id="g4" x1="0" y1="0" x2="1" y2="1">
<stop offset="0%" stop-color="#D8C890"/>
<stop offset="100%" stop-color="#C8B880"/>
</linearGradient>
<linearGradient id="gs" x1="0" y1="0" x2="0" y2="1">
<stop offset="0%" stop-color="#C5A96A"/>
<stop offset="100%" stop-color="#B09450"/>
</linearGradient>
</defs>
<ellipse cx="160" cy="178" rx="110" ry="8" fill="rgba(45,74,50,0.10)"/>
<rect x="75" y="65" width="160" height="98.88" fill="url(#g1)" opacity="0.6"/>
<rect x="147" y="65" width="98.88" height="61.12" fill="url(#g2)" opacity="0.6"/>
<rect x="147" y="102.76" width="61.12" height="61.12" fill="url(#g3)" opacity="0.6"/>
<rect x="104.76" y="102.76" width="42.24" height="61.12" fill="url(#g4)" opacity="0.6"/>
<line x1="235" y1="65" x2="235" y2="163.88" stroke="rgba(45,74,50,0.15)" stroke-width="0.5"/>
<line x1="147" y1="126.12" x2="245.88" y2="126.12" stroke="rgba(45,74,50,0.15)" stroke-width="0.5"/>
<line x1="208.12" y1="102.76" x2="208.12" y2="163.88" stroke="rgba(45,74,50,0.15)" stroke-width="0.5"/>
<line x1="147" y1="163.88" x2="208.12" y2="163.88" stroke="rgba(45,74,50,0.15)" stroke-width="0.5"/>
<path d="M75 115 A 80 48.88 0 0 1 155 163.88 A 48.88 30.22 0 0 1 245.88 133.66 A 30.22 18.68 0 0 1 215.66 102.76 A 18.68 11.55 0 0 1 204.11 114.31" fill="none" stroke="url(#gs)" stroke-width="2.5" stroke-linecap="round" opacity="0.85"/>
</svg>
