<svg xmlns="http://www.w3.org/2000/svg" viewBox="0 0 320 200">
  <defs>
    <linearGradient id="bg" x1="0" y1="0" x2="0" y2="1">
      <stop offset="0%" stop-color="#F5F0E8"/>
      <stop offset="100%" stop-color="#E8E0D0"/>
    </linearGradient>
    <filter id="shadow" x="-5%" y="-5%" width="110%" height="110%">
      <feDropShadow dx="0" dy="2" stdDeviation="3" flood-color="#2D4A32" flood-opacity="0.15"/>
    </filter>
  </defs>
  <rect width="320" height="200" rx="8" fill="url(#bg)"/>
  <!-- Horizontal baseline -->
  <line x1="10" y1="100" x2="310" y2="100" stroke="#B8B0A0" stroke-width="0.8" stroke-dasharray="4,3"/>
  <!-- Wave 1: fundamental (1 cycle, green, amplitude 45) -->
  <path d="M10,100 C40,55 80,55 90,100 C100,145 140,145 170,100 C200,55 240,55 250,100 C260,145 300,145 310,100" fill="none" stroke="#5B8C5A" stroke-width="1.5" opacity="0.6" filter="url(#shadow)"/>
  <!-- Wave 2: 3rd harmonic (3 cycles, gold, amplitude 15) -->
  <path d="M10,100 C16,85 22,85 28,100 C34,115 40,115 46,100 C52,85 58,85 64,100 C70,115 76,115 82,100 C88,85 94,85 100,100 C106,115 112,115 118,100 C124,85 130,85 136,100 C142,115 148,115 154,100 C160,85 166,85 172,100 C178,115 184,115 190,100 C196,85 202,85 208,100 C214,115 220,115 226,100 C232,85 238,85 244,100 C250,115 256,115 262,100 C268,85 274,85 280,100 C286,115 292,115 298,100 C304,85 310,85 310,100" fill="none" stroke="#C5A96A" stroke-width="1.2" opacity="0.5"/>
  <!-- Wave 3: 5th harmonic (5 cycles, blue-gray, amplitude 9) -->
  <path d="M10,100 C14,91 18,91 22,100 C26,109 30,109 34,100 C38,91 42,91 46,100 C50,109 54,109 58,100 C62,91 66,91 70,100 C74,109 78,109 82,100 C86,91 90,91 94,100 C98,109 102,109 106,100 C110,91 114,91 118,100 C122,109 126,109 130,100 C134,91 138,91 142,100 C146,109 150,109 154,100 C158,91 162,91 166,100 C170,109 174,109 178,100 C182,91 186,91 190,100 C194,109 198,109 202,100 C206,91 210,91 214,100 C218,109 222,109 226,100 C230,91 234,91 238,100 C242,109 246,109 250,100 C254,91 258,91 262,100 C266,109 270,109 274,100 C278,91 282,91 286,100 C290,109 294,109 298,100 C302,91 306,91 310,100" fill="none" stroke="#7BA8B4" stroke-width="1" opacity="0.5"/>
  <!-- Sum wave: 45*sin(x) + 15*sin(3x) + 9*sin(5x) -->
  <path d="M10,100 L15,86.2 L20,74 L25,65 L30,59.6 L35,58 L40,59.3 L45,62.3 L50,65.5 L55,68 L60,68.8 L65,68 L70,66 L75,63.6 L80,61.7 L85,61 L90,61.7 L95,63.6 L100,66 L105,68 L110,68.8 L115,68 L120,65.5 L125,62.3 L130,59.3 L135,58 L140,59.6 L145,65 L150,74 L155,86.2 L160,100 L165,113.8 L170,126 L175,135 L180,140.4 L185,142 L190,140.7 L195,137.7 L200,134.5 L205,132 L210,131.2 L215,132 L220,134 L225,136.4 L230,138.3 L235,139 L240,138.3 L245,136.4 L250,134 L255,132 L260,131.2 L265,132 L270,134.5 L275,137.7 L280,140.7 L285,142 L290,140.4 L295,135 L300,126 L305,113.8 L310,100" fill="none" stroke="#2D4A32" stroke-width="3" stroke-linecap="round" stroke-linejoin="round" filter="url(#shadow)"/>
</svg>