<svg xmlns="http://www.w3.org/2000/svg" viewBox="0 0 320 140">
  <defs>
    <linearGradient id="cyl" x1="0" y1="0" x2="1" y2="1">
      <stop offset="0%" stop-color="#8BBF8B"/>
      <stop offset="100%" stop-color="#A8D4A8"/>
    </linearGradient>
    <linearGradient id="cone" x1="0" y1="0" x2="1" y2="1">
      <stop offset="0%" stop-color="#A0C8A0"/>
      <stop offset="100%" stop-color="#C4D8A0"/>
    </linearGradient>
    <linearGradient id="frust" x1="0" y1="0" x2="1" y2="1">
      <stop offset="0%" stop-color="#C4D0A0"/>
      <stop offset="100%" stop-color="#D8C890"/>
    </linearGradient>
    <linearGradient id="sph" x1="0" y1="0" x2="1" y2="1">
      <stop offset="0%" stop-color="#D8C090"/>
      <stop offset="100%" stop-color="#E8C8A0"/>
    </linearGradient>
    <radialGradient id="shadow" cx="0.5" cy="0.5" r="0.5">
      <stop offset="0%" stop-color="rgba(45,74,50,0.10)"/>
      <stop offset="100%" stop-color="rgba(45,74,50,0)"/>
    </radialGradient>
  </defs>

  <!-- Cylinder -->
  <g transform="translate(60, 65)">
    <ellipse cx="0" cy="32" rx="16" ry="4" fill="url(#shadow)"/>
    <rect x="-15" y="-26" width="30" height="52" fill="url(#cyl)" rx="1"/>
    <ellipse cx="0" cy="-26" rx="15" ry="6" fill="#B0D8B0"/>
    <ellipse cx="-3" cy="-27" rx="7" ry="2.5" fill="#C8E8C8" opacity="0.6"/>
    <ellipse cx="0" cy="26" rx="15" ry="6" fill="#78A878"/>
  </g>

  <!-- Cone -->
  <g transform="translate(125, 65)">
    <ellipse cx="0" cy="32" rx="18" ry="4" fill="url(#shadow)"/>
    <polygon points="0,-32 -18,26 18,26" fill="url(#cone)"/>
    <polygon points="0,-32 -4,26 4,26" fill="#C8E0B0" opacity="0.3"/>
    <ellipse cx="0" cy="26" rx="18" ry="6" fill="#90B880"/>
  </g>

  <!-- Frustum -->
  <g transform="translate(195, 65)">
    <ellipse cx="0" cy="32" rx="19" ry="4" fill="url(#shadow)"/>
    <polygon points="-9,-26 9,-26 19,26 -19,26" fill="url(#frust)"/>
    <polygon points="-5,-26 1,-26 7,26 -5,26" fill="#E0D8A8" opacity="0.25"/>
    <ellipse cx="0" cy="-26" rx="9" ry="4" fill="#D0C890"/>
    <ellipse cx="0" cy="26" rx="19" ry="6" fill="#B8A870"/>
  </g>

  <!-- Sphere -->
  <g transform="translate(260, 65)">
    <ellipse cx="0" cy="28" rx="19" ry="4" fill="url(#shadow)"/>
    <circle cx="0" cy="0" r="22" fill="url(#sph)"/>
    <ellipse cx="-6" cy="-8" rx="9" ry="6" fill="#F0D8B0" opacity="0.5"/>
    <ellipse cx="-7" cy="-9" rx="3" ry="2" fill="#FFF" opacity="0.3"/>
  </g>
</svg>
