<svg xmlns="http://www.w3.org/2000/svg" viewBox="0 0 320 200">
  <defs>
    <linearGradient id="cyl" x1="0" y1="0" x2="1" y2="1">
      <stop offset="0%" stop-color="#8BBF8B"/>
      <stop offset="100%" stop-color="#A8D4A8"/>
    </linearGradient>
    <linearGradient id="cone" x1="0" y1="0" x2="1" y2="1">
      <stop offset="0%" stop-color="#A0C8A0"/>
      <stop offset="100%" stop-color="#C4D8A0"/>
    </linearGradient>
    <linearGradient id="frust" x1="0" y1="0" x2="1" y2="1">
      <stop offset="0%" stop-color="#C4D0A0"/>
      <stop offset="100%" stop-color="#D8C890"/>
    </linearGradient>
    <linearGradient id="sph" x1="0" y1="0" x2="1" y2="1">
      <stop offset="0%" stop-color="#D8C090"/>
      <stop offset="100%" stop-color="#E8C8A0"/>
    </linearGradient>
    <radialGradient id="shadow" cx="0.5" cy="0.5" r="0.5">
      <stop offset="0%" stop-color="rgba(45,74,50,0.10)"/>
      <stop offset="100%" stop-color="rgba(45,74,50,0)"/>
    </radialGradient>
  </defs>

  <!-- Cylinder -->
  <g transform="translate(48, 95)">
    <ellipse cx="0" cy="38" rx="18" ry="5" fill="url(#shadow)"/>
    <rect x="-17" y="-30" width="34" height="60" fill="url(#cyl)" rx="1"/>
    <ellipse cx="0" cy="-30" rx="17" ry="7" fill="#B0D8B0"/>
    <ellipse cx="-3" cy="-32" rx="8" ry="3" fill="#C8E8C8" opacity="0.6"/>
    <ellipse cx="0" cy="30" rx="17" ry="7" fill="#78A878"/>
  </g>

  <!-- Cone -->
  <g transform="translate(123, 95)">
    <ellipse cx="0" cy="38" rx="20" ry="5" fill="url(#shadow)"/>
    <polygon points="0,-36 -20,30 20,30" fill="url(#cone)"/>
    <polygon points="0,-36 -4,30 4,30" fill="#C8E0B0" opacity="0.3"/>
    <ellipse cx="0" cy="30" rx="20" ry="7" fill="#90B880"/>
  </g>

  <!-- Frustum -->
  <g transform="translate(203, 95)">
    <ellipse cx="0" cy="38" rx="21" ry="5" fill="url(#shadow)"/>
    <polygon points="-10,-30 10,-30 21,30 -21,30" fill="url(#frust)"/>
    <polygon points="-5,-30 1,-30 7,30 -5,30" fill="#E0D8A8" opacity="0.25"/>
    <ellipse cx="0" cy="-30" rx="10" ry="5" fill="#D0C890"/>
    <ellipse cx="0" cy="30" rx="21" ry="7" fill="#B8A870"/>
  </g>

  <!-- Sphere -->
  <g transform="translate(268, 95)">
    <ellipse cx="0" cy="30" rx="20" ry="5" fill="url(#shadow)"/>
    <circle cx="0" cy="0" r="24" fill="url(#sph)"/>
    <ellipse cx="-6" cy="-8" rx="10" ry="7" fill="#F0D8B0" opacity="0.5"/>
    <ellipse cx="-7" cy="-9" rx="3" ry="2" fill="#FFF" opacity="0.3"/>
  </g>
</svg>
