<svg xmlns="http://www.w3.org/2000/svg" viewBox="0 0 360 200">
  <defs>
    <!-- Cylinder gradient: left dark, right light -->
    <linearGradient id="cyl" x1="0" y1="0" x2="1" y2="0">
      <stop offset="0%" stop-color="#5B8C5A"/>
      <stop offset="100%" stop-color="#7DAF7C"/>
    </linearGradient>
    <!-- Cone gradient: warm amber -->
    <linearGradient id="cone" x1="0" y1="0" x2="1" y2="0">
      <stop offset="0%" stop-color="#B8934A"/>
      <stop offset="100%" stop-color="#D4B06A"/>
    </linearGradient>
    <!-- Frustum gradient: muted sage -->
    <linearGradient id="frust" x1="0" y1="0" x2="1" y2="0">
      <stop offset="0%" stop-color="#6E9B6E"/>
      <stop offset="100%" stop-color="#95BF95"/>
    </linearGradient>
    <!-- Sphere gradient: warm terracotta -->
    <linearGradient id="sph" x1="0.3" y1="0.2" x2="0.8" y2="0.9">
      <stop offset="0%" stop-color="#E0C090"/>
      <stop offset="100%" stop-color="#C09060"/>
    </linearGradient>
    <!-- Subtle shadow -->
    <radialGradient id="shadow" cx="0.5" cy="0.5" r="0.5">
      <stop offset="0%" stop-color="rgba(45,74,50,0.12)"/>
      <stop offset="100%" stop-color="rgba(45,74,50,0)"/>
    </radialGradient>
  </defs>

  <!-- ═══ Cylinder ═══ -->
  <g transform="translate(50, 100)">
    <!-- Shadow -->
    <ellipse cx="0" cy="48" rx="24" ry="5" fill="url(#shadow)"/>
    <!-- Body -->
    <rect x="-22" y="-38" width="44" height="76" fill="url(#cyl)"/>
    <!-- Top face -->
    <ellipse cx="0" cy="-38" rx="22" ry="9" fill="#7DAF7C"/>
    <!-- Top highlight -->
    <ellipse cx="-4" cy="-40" rx="10" ry="4" fill="#95CC95" opacity="0.5"/>
    <!-- Bottom face (darker) -->
    <ellipse cx="0" cy="38" rx="22" ry="9" fill="#4A7A4A"/>
  </g>

  <!-- ═══ Cone ═══ -->
  <g transform="translate(140, 100)">
    <!-- Shadow -->
    <ellipse cx="0" cy="48" rx="28" ry="5" fill="url(#shadow)"/>
    <!-- Body -->
    <polygon points="0,-48 -28,38 28,38" fill="url(#cone)"/>
    <!-- Highlight stripe -->
    <polygon points="0,-48 -6,38 6,38" fill="#D4C080" opacity="0.3"/>
    <!-- Base face -->
    <ellipse cx="0" cy="38" rx="28" ry="9" fill="#A07830"/>
  </g>

  <!-- ═══ Frustum ═══ -->
  <g transform="translate(235, 100)">
    <!-- Shadow -->
    <ellipse cx="0" cy="48" rx="28" ry="5" fill="url(#shadow)"/>
    <!-- Body -->
    <polygon points="-14,-38 14,-38 28,38 -28,38" fill="url(#frust)"/>
    <!-- Highlight -->
    <polygon points="-8,-38 0,-38 8,38 -8,38" fill="#A8D0A8" opacity="0.25"/>
    <!-- Top face -->
    <ellipse cx="0" cy="-38" rx="14" ry="6" fill="#95BF95"/>
    <!-- Bottom face -->
    <ellipse cx="0" cy="38" rx="28" ry="9" fill="#5A8A5A"/>
  </g>

  <!-- ═══ Sphere ═══ -->
  <g transform="translate(315, 100)">
    <!-- Shadow -->
    <ellipse cx="0" cy="42" rx="28" ry="5" fill="url(#shadow)"/>
    <!-- Main sphere -->
    <circle cx="0" cy="0" r="32" fill="url(#sph)"/>
    <!-- Highlight -->
    <ellipse cx="-10" cy="-12" rx="14" ry="10" fill="#F0D8A8" opacity="0.45"/>
    <!-- Small specular -->
    <ellipse cx="-12" cy="-14" rx="5" ry="3" fill="#FFF" opacity="0.3"/>
  </g>
</svg>
